<?xml version="1.0" ?><svg viewBox="0 0 64 64" xmlns="http://www.w3.org/2000/svg"><g id="Advertising"><path d="M44.6606,5.9059h5.8766a1.4365,1.4365,0,0,1,1.4365,1.4365v40.026a1.4364,1.4364,0,0,1-1.4364,1.4364H44.6605a1.4364,1.4364,0,0,1-1.4364-1.4364V7.3425A1.4365,1.4365,0,0,1,44.6606,5.9059Z"/><path d="M54.6719,19.5727V35.1381a7.8533,7.8533,0,0,0,0-15.5654Z"/><path d="M20.5078,38.1791v-19.54H12.2744A9.9941,9.9941,0,0,0,2.19,27.7444a9.77,9.77,0,0,0,9.7379,10.4347Z"/><path d="M23.2078,38.8892l3.29,1-.02,6.23h-5.97v-5.24h-8.58c-.29,0-.58-.01-.86-.03L9.2293,40.711a.0552.0552,0,0,0-.0583.0659l3.4066,17.1322a1.8152,1.8152,0,0,0,1.75,1.46l4.34.07a1.81,1.81,0,0,0,1.84-1.81v-8.01h6.34a3.1263,3.1263,0,0,0,3.13-3.12v-5.55L40.5286,44.15V11.8879L23.2078,17.7192Z"/></g></svg>