<?xml version="1.0" encoding="utf-8"?>
<!-- Generator: Adobe Illustrator 24.0.2, SVG Export Plug-In . SVG Version: 6.00 Build 0)  -->
<svg version="1.1" id="Layer_1" xmlns="http://www.w3.org/2000/svg" xmlns:xlink="http://www.w3.org/1999/xlink" x="0px" y="0px"
	 viewBox="0 0 384 384" style="enable-background:new 0 0 384 384;" xml:space="preserve">
<path d="M384,384c0,0,0-26.4-2.2-40.2c-1.8-10.9-16.9-25.3-81.1-48.9c-63.2-23.2-59.3-11.9-59.3-54.6c0-27.7,14.1-11.6,23.1-64.2
	c3.5-20.7,6.3-6.9,13.9-40.1c4-17.4-2.7-18.7-1.9-27c0.8-8.3,1.6-15.7,3.1-32.7C281.4,55.3,261.9,0,192,0s-89.4,55.3-87.5,76.4
	c1.5,16.9,2.3,24.4,3.1,32.7s-5.9,9.6-1.9,27c7.6,33.1,10.4,19.3,13.9,40.1c9,52.6,23.1,36.5,23.1,64.2c0,42.8,3.9,31.5-59.3,54.6
	C19.2,318.5,4,333,2.3,343.9C0,357.6,0,384,0,384h192H384z"/>
</svg>
