<?xml version="1.0" encoding="utf-8"?>
<!-- Generator: Adobe Illustrator 24.0.2, SVG Export Plug-In . SVG Version: 6.00 Build 0)  -->
<svg version="1.1" id="Layer_1" xmlns="http://www.w3.org/2000/svg" xmlns:xlink="http://www.w3.org/1999/xlink" x="0px" y="0px"
	 viewBox="0 0 159 198.51" style="enable-background:new 0 0 159 198.51;" xml:space="preserve">
<style type="text/css">
	.st0{fill:#00A99D;}
	.st1{fill:#FFFFFF;stroke:#1B1464;stroke-miterlimit:10;}
	.st2{fill:#9E005D;}
	.st3{fill:#7AA643;}
	.st4{fill:#FFFFFF;}
	.st5{fill:#1B1464;}
	.st6{fill:#F7931E;}
	.st7{fill:#B3B3B3;}
	.st8{fill:none;stroke:#FFFFFF;stroke-miterlimit:10;}
	.st9{fill:#EBF3AB;}
	.st10{fill:none;stroke:#9E005D;stroke-width:2;stroke-miterlimit:10;}
	.st11{fill:#3FA9F5;stroke:#FFFFFF;stroke-miterlimit:10;}
	.st12{fill:#FBB03B;}
	.st13{fill:#3FA9F5;}
	.st14{fill:#2E3192;}
	.st15{fill:#CCCCCC;}
	.st16{fill:#EAF1E9;}
	.st17{fill:none;stroke:#9E005D;stroke-width:1.5;stroke-miterlimit:10;}
	.st18{fill:#002845;}
	.st19{fill:#70CCFF;}
	.st20{fill:#BF0004;}
	.st21{fill:#00BBA4;}
	.st22{fill:#015300;}
	.st23{fill:#5D4797;}
	.st24{fill:#FF7B55;}
	.st25{fill:#5D2C97;}
	.st26{fill:#7AC943;}
	.st27{fill:#7AA443;}
	.st28{fill:#3F78F5;}
	.st29{fill:#81005D;}
	.st30{fill:#8CC63F;}
	.st31{fill:#7AAE43;}
	.st32{fill:#3F83F5;}
</style>
<g>
	<circle class="st0" cx="59" cy="182.01" r="16.5"/>
	<path class="st1" d="M66,190.01H52c-0.55,0-1-0.45-1-1v-14c0-0.55,0.45-1,1-1h14c0.55,0,1,0.45,1,1v14
		C67,189.56,66.55,190.01,66,190.01z"/>
	<path class="st2" d="M59.86,183.23l-4.08-4.08c-0.38-0.38-0.38-0.98,0-1.36l0,0c0.38-0.38,0.98-0.38,1.36,0l4.08,4.08
		c0.38,0.38,0.38,0.98,0,1.36l0,0C60.84,183.6,60.23,183.6,59.86,183.23z"/>
	<g>
		<path class="st2" d="M71.41,175.32c-4.68,1.35-8.15,4.22-10.02,7.44c-0.24,0.41-0.74,0.57-1.18,0.39l0,0
			c-0.44-0.18-0.66-0.67-0.44-1.11c1.77-3.45,5.17-6.62,9.88-8.36c0.6-0.23,1.53-0.01,2.01,0.48c0,0,0,0,0,0
			C72.15,174.64,72,175.15,71.41,175.32z"/>
	</g>
</g>
<g id="_x31_6">
	<circle class="st3" cx="16.5" cy="182.01" r="16.5"/>
	<path class="st4" d="M8.92,178.95c-0.03,0.02-0.07,0.03-0.1,0.06l-3.62,3.45c-0.2,0.19-0.21,0.51-0.02,0.71s0.51,0.21,0.71,0.02
		l3.3-3.16l-0.33-0.44C8.72,179.39,8.75,179.13,8.92,178.95z"/>
	<path class="st4" d="M27.85,184.43l-3.56-4.47c-0.13,0.33-0.42,0.56-0.78,0.61l3.54,4.44c0.16,0.21,0.48,0.24,0.7,0.08
		C27.97,184.94,28.01,184.64,27.85,184.43z"/>
	<path class="st4" d="M13.11,185.28c0.17,0.16,0.43,0.19,0.63,0.04c0.06-0.04,0.1-0.1,0.14-0.16l-0.24,0.13
		C13.47,185.38,13.27,185.37,13.11,185.28z"/>
	<path class="st4" d="M13.12,184.42l0.41-0.23L9.67,179c-0.16-0.22-0.48-0.27-0.7-0.1c-0.02,0.02-0.04,0.04-0.06,0.06
		c0.2-0.11,0.45-0.09,0.61,0.08c0.19,0.2,0.18,0.52-0.02,0.71l-0.31,0.3l3.7,4.98C12.82,184.79,12.9,184.54,13.12,184.42z"/>
	<path class="st4" d="M9.53,179.03c-0.16-0.17-0.41-0.19-0.61-0.08c-0.17,0.17-0.2,0.44-0.05,0.64l0.33,0.44l0.31-0.3
		C9.71,179.55,9.72,179.23,9.53,179.03z"/>
	<path class="st4" d="M12.9,185.02c0.01,0.03,0.01,0.06,0.03,0.09c0.05,0.08,0.11,0.13,0.18,0.17c-0.02-0.02-0.05-0.04-0.07-0.06
		L12.9,185.02z"/>
	<path class="st4" d="M22.42,179.28l-8.89,4.91l0.31,0.42c0.12,0.16,0.13,0.37,0.03,0.54l8.77-4.85c-0.18-0.18-0.29-0.43-0.29-0.71
		C22.36,179.49,22.39,179.38,22.42,179.28z"/>
	<path class="st4" d="M13.85,184.62l-0.31-0.42l-0.41,0.23c-0.22,0.12-0.3,0.37-0.22,0.59l0.15,0.2c0.02,0.03,0.05,0.04,0.07,0.06
		c0.16,0.09,0.36,0.11,0.53,0.01l0.24-0.13C13.97,184.99,13.97,184.78,13.85,184.62z"/>
	<path class="st5" d="M23.79,179.1c0.06,0.1,0.07,0.2,0.06,0.31l0.44,0.55c0.04-0.11,0.07-0.23,0.07-0.36c0-0.55-0.45-1-1-1
		c-0.44,0-0.8,0.29-0.93,0.68l0.65-0.36C23.33,178.78,23.65,178.87,23.79,179.1z"/>
	<path class="st5" d="M22.65,180.31c0.18,0.18,0.43,0.29,0.71,0.29c0.05,0,0.1-0.02,0.15-0.03l-0.41-0.51L22.65,180.31z"/>
	<path class="st5" d="M24.29,179.96l-0.44-0.55c-0.02,0.15-0.1,0.29-0.25,0.38l-0.5,0.28l0.41,0.51
		C23.86,180.52,24.16,180.29,24.29,179.96z"/>
	<path class="st5" d="M22.87,179.78c-0.16-0.21-0.12-0.51,0.1-0.67c0.22-0.16,0.53-0.13,0.7,0.08l0.18,0.22
		c0.01-0.1,0-0.21-0.06-0.31c-0.14-0.24-0.46-0.32-0.71-0.18l-0.65,0.36c-0.04,0.1-0.07,0.21-0.07,0.32c0,0.28,0.11,0.53,0.29,0.71
		l0.45-0.25L22.87,179.78z"/>
	<path class="st5" d="M22.97,179.11c-0.22,0.16-0.27,0.46-0.1,0.67l0.23,0.29l0.5-0.28c0.15-0.08,0.23-0.22,0.25-0.38l-0.18-0.22
		C23.5,178.98,23.19,178.95,22.97,179.11z"/>
</g>
<g id="_x31_5">
	<circle class="st6" cx="142.5" cy="141.51" r="16.5"/>
	<path class="st7" d="M149,136.08l-3.31,0.66l-5,5c-1.25-0.33-2.62-0.02-3.6,0.96c-1.46,1.46-1.46,3.83,0,5.29
		c1.46,1.46,3.83,1.46,5.29,0c0.98-0.98,1.28-2.36,0.96-3.6l0.39-0.39l-0.26-0.72l0.84,0.15l0.8-0.8l-0.18-0.66l0.67,0.17l0.72-0.72
		l-0.26-0.98l0.97,0.27l0.88-0.88l-0.32-0.56h0.77L149,136.08z M139.08,147.32c-0.37,0.37-0.96,0.37-1.32,0
		c-0.37-0.37-0.37-0.96,0-1.32c0.37-0.37,0.96-0.37,1.32,0C139.45,146.36,139.45,146.96,139.08,147.32z"/>
	<path class="st4" d="M149.45,134.56l-3.54,0.71l-5.34,5.34c-1.33-0.35-2.81-0.02-3.85,1.02c-1.56,1.56-1.56,4.09,0,5.66
		s4.09,1.56,5.66,0c1.04-1.04,1.37-2.52,1.02-3.85l0.42-0.42l-0.28-0.77l0.9,0.16l0.86-0.86l-0.2-0.71l0.72,0.19l0.77-0.77
		l-0.27-1.05l1.04,0.29l0.94-0.94l-0.35-0.6h0.82L149.45,134.56z M138.84,146.58c-0.39,0.39-1.02,0.39-1.41,0
		c-0.39-0.39-0.39-1.02,0-1.41c0.39-0.39,1.02-0.39,1.41,0C139.23,145.55,139.23,146.19,138.84,146.58z"/>
</g>
<g id="_x31_4">
	<circle class="st6" cx="101" cy="141.51" r="16.5"/>
	<circle class="st4" cx="101" cy="141.51" r="1.5"/>
	<ellipse class="st8" cx="101" cy="141.51" rx="4" ry="12.5"/>
	<ellipse transform="matrix(0.5736 -0.8192 0.8192 0.5736 -72.8474 143.0764)" class="st8" cx="101" cy="141.51" rx="4" ry="12.5"/>
	<ellipse transform="matrix(0.8192 -0.5736 0.5736 0.8192 -62.8997 83.5226)" class="st8" cx="101" cy="141.51" rx="12.5" ry="4"/>
</g>
<g id="_x31_3">
	<circle class="st9" cx="59" cy="141.51" r="16.5"/>
	<circle class="st10" cx="59" cy="141.51" r="11.5"/>
	<rect x="58" y="130.51" transform="matrix(0.7071 -0.7071 0.7071 0.7071 -82.7802 83.1659)" class="st2" width="2" height="22"/>
</g>
<g id="_x31_2">
	<circle class="st6" cx="16.5" cy="141.51" r="16.5"/>
	<g>
		<path class="st5" d="M25.5,136.26h-1.25c0.08,0.05,0.16,0.11,0.25,0.15v0.35h-9v-0.35c0.09-0.04,0.17-0.1,0.25-0.15H11H8H7.5
			c-0.55,0-1,0.45-1,1v10c0,0.55,0.45,1,1,1h18c0.55,0,1-0.45,1-1v-10C26.5,136.71,26.05,136.26,25.5,136.26z M20,146.26
			c-2.21,0-4-1.79-4-4c0-2.21,1.79-4,4-4s4,1.79,4,4C24,144.47,22.21,146.26,20,146.26z"/>
		<circle class="st11" cx="20" cy="142.26" r="4"/>
		<rect x="8" y="135.26" class="st5" width="3" height="1"/>
		<path class="st5" d="M22.87,134.76h-5.74c-0.3,0.63-0.78,1.15-1.37,1.5h8.49C23.65,135.9,23.17,135.39,22.87,134.76z"/>
		<path class="st5" d="M15.5,136.76h9v-0.35c-0.09-0.04-0.17-0.1-0.25-0.15h-8.49c-0.08,0.05-0.16,0.11-0.25,0.15V136.76z"/>
	</g>
</g>
<g id="_x31_1">
	<circle class="st5" cx="142.5" cy="99.51" r="16.5"/>
	<g>
		<path class="st12" d="M142.5,99.11l6.87-12.37c-2.05-1.1-4.38-1.73-6.87-1.73s-4.83,0.63-6.87,1.73L142.5,99.11z"/>
		<path class="st12" d="M143,100.01h-0.22l6.76,12.17c4.31-2.4,7.26-6.93,7.43-12.17H143z"/>
		<path class="st12" d="M142.22,100.01H142h-13.97c0.18,5.24,3.12,9.77,7.43,12.17L142.22,100.01z"/>
	</g>
</g>
<g id="_x31_0">
	<circle class="st6" cx="100" cy="99.51" r="16.5"/>
	<path class="st7" d="M108.5,112.01h-16c-1.1,0-2-0.9-2-2v-20c0-1.1,0.9-2,2-2h16c1.1,0,2,0.9,2,2v20
		C110.5,111.11,109.6,112.01,108.5,112.01z"/>
	<path class="st4" d="M108,111.51H92c-1.1,0-2-0.9-2-2v-20c0-1.1,0.9-2,2-2h16c1.1,0,2,0.9,2,2v20
		C110,110.61,109.1,111.51,108,111.51z"/>
	<rect x="91.5" y="90.01" class="st13" width="17" height="16"/>
	<path class="st14" d="M104.21,105.97l-5.75-7.58c-0.49-0.64-1.45-0.64-1.93,0L91.5,105v1h12.73
		C104.22,106,104.21,105.98,104.21,105.97z"/>
	<path class="st14" d="M108.5,106.01v-2.93l-1.25-1.24c-0.47-0.47-1.23-0.47-1.7,0l-4.15,4.08c-0.02,0.02-0.04,0.05-0.06,0.08H108.5
		z"/>
	<circle class="st6" cx="105" cy="93.51" r="1.5"/>
</g>
<g id="_x39_">
	<circle class="st6" cx="58" cy="99.51" r="16.5"/>
	<path class="st7" d="M69.5,106.01h-22c-0.55,0-1-0.45-1-1v-10c0-0.55,0.45-1,1-1h22c0.55,0,1,0.45,1,1v10
		C70.5,105.56,70.05,106.01,69.5,106.01z"/>
	<path class="st7" d="M69.5,92.01h-6c-0.08,0-0.15,0.03-0.22,0.04c-0.17,0.79-0.43,1.53-0.78,2.2v0.75c0,0.55,0.45,1,1,1h6
		c0.55,0,1-0.45,1-1v-2C70.5,92.46,70.05,92.01,69.5,92.01z"/>
	<path class="st15" d="M68.5,91.01h-6c-0.08,0-0.15,0.03-0.22,0.04c-0.17,0.79-0.43,1.53-0.78,2.2v0.75c0,0.55,0.45,1,1,1h6
		c0.55,0,1-0.45,1-1v-2C69.5,91.46,69.05,91.01,68.5,91.01z"/>
	<path class="st16" d="M69,105.51H47c-0.55,0-1-0.45-1-1v-10c0-0.55,0.45-1,1-1h22c0.55,0,1,0.45,1,1v10
		C70,105.06,69.55,105.51,69,105.51z"/>
</g>
<g id="_x38_">
	<circle class="st9" cx="16.5" cy="99.51" r="16.5"/>
	<circle class="st17" cx="16.5" cy="99.51" r="12"/>
	<path class="st5" d="M16.5,93.01L16.5,93.01c-0.28,0-0.5,0.22-0.5,0.5v6c0,0.28,0.22,0.5,0.5,0.5l0,0c0.28,0,0.5-0.22,0.5-0.5v-6
		C17,93.23,16.78,93.01,16.5,93.01z"/>
	<path class="st5" d="M16.22,99.43L16.22,99.43c-0.19,0.2-0.18,0.52,0.02,0.71l5.84,5.47c0.2,0.19,0.52,0.18,0.71-0.02l0,0
		c0.19-0.2,0.18-0.52-0.02-0.71l-5.84-5.47C16.72,99.22,16.4,99.23,16.22,99.43z"/>
</g>
<g id="_x37_">
	<circle class="st18" cx="142.5" cy="57.51" r="16.5"/>
	<circle class="st4" cx="142.5" cy="57.51" r="12.5"/>
	<circle class="st19" cx="142.5" cy="57.51" r="11"/>
	<path class="st20" d="M138.43,61.97l3.44-2.05c0.29-0.17,0.34-0.57,0.1-0.81l-1.38-1.38c-0.24-0.24-0.64-0.19-0.81,0.1l-2.05,3.44
		C137.44,61.72,137.97,62.25,138.43,61.97z"/>
	<path class="st20" d="M146.77,52.76l-3.44,2.05c-0.29,0.17-0.34,0.57-0.1,0.81l1.38,1.38c0.24,0.24,0.64,0.19,0.81-0.1l2.05-3.44
		C147.76,53.01,147.24,52.48,146.77,52.76z"/>
	<circle class="st4" cx="142.5" cy="57.51" r="2.5"/>
</g>
<g id="_x36_">
	<path class="st21" d="M100,41.01c-9.11,0-16.5,7.39-16.5,16.5c0,9.11,7.39,16.5,16.5,16.5s16.5-7.39,16.5-16.5
		C116.5,48.39,109.11,41.01,100,41.01z M94,62.62v2.89c0,0.55-0.45,1-1,1s-1-0.45-1-1v-2.89c-0.3-0.27-0.5-0.67-0.5-1.11
		s0.2-0.84,0.5-1.11V49.51c0-0.55,0.45-1,1-1s1,0.45,1,1V60.4c0.3,0.27,0.5,0.67,0.5,1.11S94.3,62.34,94,62.62z M101,54.62v10.89
		c0,0.55-0.45,1-1,1s-1-0.45-1-1V54.62c-0.3-0.27-0.5-0.67-0.5-1.11s0.2-0.84,0.5-1.11v-2.89c0-0.55,0.45-1,1-1s1,0.45,1,1v2.89
		c0.3,0.27,0.5,0.67,0.5,1.11S101.3,54.34,101,54.62z M108,60.62v4.89c0,0.55-0.45,1-1,1s-1-0.45-1-1v-4.89
		c-0.3-0.27-0.5-0.67-0.5-1.11s0.2-0.84,0.5-1.11v-8.89c0-0.55,0.45-1,1-1s1,0.45,1,1v8.89c0.3,0.27,0.5,0.67,0.5,1.11
		S108.3,60.34,108,60.62z"/>
	<path class="st22" d="M92,62.62v2.89c0,0.55,0.45,1,1,1s1-0.45,1-1v-2.89c-0.27,0.24-0.61,0.39-1,0.39S92.27,62.86,92,62.62z"/>
	<path class="st22" d="M94,60.4V49.51c0-0.55-0.45-1-1-1s-1,0.45-1,1V60.4c0.27-0.24,0.61-0.39,1-0.39S93.73,60.16,94,60.4z"/>
	<path class="st22" d="M106,60.62v4.89c0,0.55,0.45,1,1,1s1-0.45,1-1v-4.89c-0.27,0.24-0.61,0.39-1,0.39S106.27,60.86,106,60.62z"/>
	<path class="st22" d="M108,58.4v-8.89c0-0.55-0.45-1-1-1s-1,0.45-1,1v8.89c0.27-0.24,0.61-0.39,1-0.39S107.73,58.16,108,58.4z"/>
	<path class="st22" d="M101,52.4v-2.89c0-0.55-0.45-1-1-1s-1,0.45-1,1v2.89c0.27-0.24,0.61-0.39,1-0.39S100.73,52.16,101,52.4z"/>
	<path class="st22" d="M99,54.62v10.89c0,0.55,0.45,1,1,1s1-0.45,1-1V54.62c-0.27,0.24-0.61,0.39-1,0.39S99.27,54.86,99,54.62z"/>
	<path class="st4" d="M108,58.4c-0.27-0.24-0.61-0.39-1-0.39s-0.73,0.15-1,0.39c-0.3,0.27-0.5,0.67-0.5,1.11s0.2,0.84,0.5,1.11
		c0.27,0.24,0.61,0.39,1,0.39s0.73-0.15,1-0.39c0.3-0.27,0.5-0.67,0.5-1.11S108.3,58.67,108,58.4z"/>
	<path class="st4" d="M101,52.4c-0.27-0.24-0.61-0.39-1-0.39s-0.73,0.15-1,0.39c-0.3,0.27-0.5,0.67-0.5,1.11s0.2,0.84,0.5,1.11
		c0.27,0.24,0.61,0.39,1,0.39s0.73-0.15,1-0.39c0.3-0.27,0.5-0.67,0.5-1.11S101.3,52.67,101,52.4z"/>
	<path class="st4" d="M94,60.4c-0.27-0.24-0.61-0.39-1-0.39s-0.73,0.15-1,0.39c-0.3,0.27-0.5,0.67-0.5,1.11s0.2,0.84,0.5,1.11
		c0.27,0.24,0.61,0.39,1,0.39s0.73-0.15,1-0.39c0.3-0.27,0.5-0.67,0.5-1.11S94.3,60.67,94,60.4z"/>
</g>
<g id="_x35_">
	<circle class="st23" cx="58" cy="57.51" r="16.5"/>
	<g>
		<path class="st24" d="M51.57,55.13c0.22-1.49,0.99-2.8,2.09-3.72c-0.62-1.41-2.02-2.4-3.66-2.4c-2.21,0-4,1.79-4,4
			c0,1.24,0.57,2.33,1.45,3.06c0.85-0.66,1.89-1.06,3.05-1.06C50.87,55.01,51.23,55.05,51.57,55.13z"/>
		<path class="st25" d="M63.49,56.29c0.3-0.11,0.61-0.18,0.93-0.22c-0.24-1.52-1.05-2.85-2.21-3.77c0.81,1.02,1.29,2.31,1.29,3.71
			C63.5,56.1,63.49,56.19,63.49,56.29z"/>
		<path class="st25" d="M70.5,61.51c0-1.5-0.74-2.82-1.87-3.63c0.54,0.74,0.87,1.65,0.87,2.63c0,2.33-1.77,4.22-4.04,4.45l0.04,0.05
			h-15c-1.13,0-2.15-0.39-2.99-1.01c0.91,1.22,2.35,2.01,3.99,2.01h15l-0.04-0.05C68.73,65.73,70.5,63.83,70.5,61.51z"/>
		<path class="st4" d="M65.5,65.01l-0.04-0.05c2.27-0.23,4.04-2.13,4.04-4.45c0-0.99-0.33-1.89-0.87-2.63
			c-0.82-1.13-2.14-1.87-3.63-1.87c-0.2,0-0.39,0.03-0.58,0.06c-0.32,0.05-0.63,0.12-0.93,0.22c0-0.09,0.01-0.19,0.01-0.28
			c0-1.4-0.48-2.69-1.29-3.71c-1.1-1.39-2.8-2.29-4.71-2.29c-1.46,0-2.8,0.53-3.84,1.4c-1.1,0.92-1.87,2.23-2.09,3.72
			c-0.35-0.08-0.7-0.12-1.07-0.12c-1.15,0-2.2,0.41-3.05,1.06c-1.18,0.91-1.95,2.33-1.95,3.94c0,1.64,0.8,3.08,2.01,3.99
			c0.84,0.63,1.86,1.01,2.99,1.01H65.5z"/>
	</g>
</g>
<g id="_x34_">
	<circle class="st26" cx="16.5" cy="57.01" r="16.5"/>
	<path class="st27" d="M7.24,56.25l8.51,13.74c0.57,0.93,1.92,0.93,2.5,0l8.51-13.74c0.61-0.98-0.1-2.24-1.25-2.24H22.5v-7
		c0-1.1-0.9-2-2-2h-7c-1.1,0-2,0.9-2,2v7H8.49C7.34,54.01,6.63,55.27,7.24,56.25z"/>
	<path class="st4" d="M6.74,55.41l8.51,13.74c0.57,0.93,1.92,0.93,2.5,0l8.51-13.74c0.61-0.98-0.1-2.24-1.25-2.24H22v-7
		c0-1.1-0.9-2-2-2h-7c-1.1,0-2,0.9-2,2v7H7.99C6.84,53.17,6.13,54.43,6.74,55.41z"/>
</g>
<g id="_x33_">
	<ellipse class="st13" cx="142.5" cy="16.25" rx="16.45" ry="16.25"/>
	<path class="st28" d="M152.73,18.97l-8.49-13.54c-0.57-0.91-1.92-0.91-2.49,0l-8.49,13.54c-0.6,0.96,0.1,2.21,1.24,2.21h3v6.9
		c0,1.09,0.89,1.97,1.99,1.97h6.98c1.1,0,1.99-0.88,1.99-1.97v-6.9h3C152.63,21.18,153.33,19.93,152.73,18.97z"/>
	<path class="st4" d="M152.23,17.83l-8.49-13.54c-0.57-0.91-1.92-0.91-2.49,0l-8.49,13.54c-0.6,0.96,0.1,2.21,1.24,2.21h3v6.9
		c0,1.09,0.89,1.97,1.99,1.97h6.98c1.1,0,1.99-0.88,1.99-1.97v-6.9h3C152.13,20.04,152.84,18.79,152.23,17.83z"/>
</g>
<g id="_x32_">
	<ellipse class="st2" cx="99.93" cy="16.25" rx="16.45" ry="16.25"/>
	<path class="st29" d="M112.89,20.19c0-2.45-2.01-4.43-4.49-4.43c-0.53,0-1.04,0.11-1.51,0.28c0-0.09,0.01-0.18,0.01-0.28
		c0-2.38-1.43-4.43-3.49-5.37v0.94v0.49v3.94h2.49l-4.98,5.91l-4.98-5.91h2.49v-3.94v-0.49v-0.92c-1.8,0.82-3.12,2.48-3.42,4.48
		c-0.34-0.07-0.7-0.12-1.07-0.12c-2.75,0-4.98,2.21-4.98,4.93s2.23,4.93,4.98,4.93h14.95l-0.04-0.05
		C111.12,24.35,112.89,22.49,112.89,20.19z"/>
	<path class="st4" d="M111.9,19.21c0-2.45-2.01-4.43-4.49-4.43c-0.53,0-1.04,0.11-1.51,0.28c0-0.09,0.01-0.18,0.01-0.28
		c0-2.38-1.43-4.43-3.49-5.37v0.94v0.49v3.94h2.49l-4.98,5.91l-4.98-5.91h2.49v-3.94v-0.49V9.43c-1.8,0.82-3.12,2.48-3.42,4.48
		c-0.34-0.07-0.7-0.12-1.07-0.12c-2.75,0-4.98,2.21-4.98,4.93s2.23,4.93,4.98,4.93h14.95l-0.04-0.05
		C110.13,23.37,111.9,21.5,111.9,19.21z"/>
</g>
<g id="_x31_">
	<ellipse class="st30" cx="58.07" cy="16.25" rx="16.45" ry="16.25"/>
	<path class="st31" d="M71.02,20.19c0-2.45-2.01-4.43-4.49-4.43c-0.53,0-1.04,0.11-1.51,0.28c0-0.09,0.01-0.18,0.01-0.28
		c0-3.26-2.68-5.91-5.98-5.91c-3,0-5.49,2.19-5.91,5.04c-0.34-0.07-0.7-0.12-1.07-0.12c-2.75,0-4.98,2.21-4.98,4.93
		s2.23,4.93,4.98,4.93h4.49v-4.43h-2.49l4.98-5.91l4.98,5.91h-2.49v4.43h5.48L67,24.58C69.26,24.35,71.02,22.49,71.02,20.19z"/>
	<path class="st4" d="M70.03,19.21c0-2.45-2.01-4.43-4.49-4.43c-0.53,0-1.04,0.11-1.51,0.28c0-0.09,0.01-0.18,0.01-0.28
		c0-3.26-2.68-5.91-5.98-5.91c-3,0-5.49,2.19-5.91,5.04c-0.34-0.07-0.7-0.12-1.07-0.12c-2.75,0-4.98,2.21-4.98,4.93
		s2.23,4.93,4.98,4.93h4.49v-4.43h-2.49l4.98-5.91l4.98,5.91h-2.49v4.43h5.48L66,23.6C68.26,23.37,70.03,21.5,70.03,19.21z"/>
</g>
<g id="_x30_">
	<ellipse class="st13" cx="16.5" cy="16.25" rx="16.45" ry="16.25"/>
	<path class="st32" d="M29.46,20.19c0-2.45-2.01-4.43-4.49-4.43c-0.53,0-1.04,0.11-1.51,0.28c0-0.09,0.01-0.18,0.01-0.28
		c0-3.26-2.68-5.91-5.98-5.91c-3,0-5.49,2.19-5.91,5.04c-0.34-0.07-0.7-0.12-1.07-0.12c-2.75,0-4.98,2.21-4.98,4.93
		s2.23,4.93,4.98,4.93h14.95l-0.04-0.05C27.69,24.35,29.46,22.49,29.46,20.19z"/>
	<path class="st4" d="M28.46,19.21c0-2.45-2.01-4.43-4.49-4.43c-0.53,0-1.04,0.11-1.51,0.28c0-0.09,0.01-0.18,0.01-0.28
		c0-3.26-2.68-5.91-5.98-5.91c-3,0-5.49,2.19-5.91,5.04c-0.34-0.07-0.7-0.12-1.07-0.12c-2.75,0-4.98,2.21-4.98,4.93
		s2.23,4.93,4.98,4.93h14.95l-0.04-0.05C26.69,23.37,28.46,21.5,28.46,19.21z"/>
</g>
</svg>
